<svg xmlns:xlink="http://www.w3.org/1999/xlink" viewBox="0 0 931.59 257.02" style="shape-rendering:geometricPrecision; text-rendering:geometricPrecision; image-rendering:optimizeQuality; fill-rule:evenodd; clip-rule:evenodd" version="1.1" height="15.795mm" width="57.2491mm" xml:space="preserve" xmlns="http://www.w3.org/2000/svg">
 <defs>
  <style type="text/css">
   
    .str0 {stroke:#00A0E3;stroke-width:1.24;stroke-miterlimit:22.9256}
    .fil1 {fill:none;fill-rule:nonzero}
    .fil2 {fill:#727271}
    .fil0 {fill:#00A0E3;fill-rule:nonzero}
    .fil3 {fill:url(#id0)}
    .fil4 {fill:url(#id1)}
   
  </style>
  <linearGradient y2="14.29" x2="658.64" y1="163.01" x1="723.63" gradientUnits="userSpaceOnUse" id="id0">
   <stop style="stop-opacity:1; stop-color:#009846" offset="0"></stop>
   <stop style="stop-opacity:1; stop-color:#FEFEFE" offset="0.478431"></stop>
   <stop style="stop-opacity:1; stop-color:#F39612" offset="1"></stop>
  </linearGradient>
  <linearGradient y2="176.91" x2="281.87" y1="0.42" x1="274.17" gradientUnits="userSpaceOnUse" id="id1">
   <stop style="stop-opacity:1; stop-color:#FFED00" offset="0"></stop>
   <stop style="stop-opacity:1; stop-color:#E63C24" offset="1"></stop>
  </linearGradient>
 </defs>
 <g id="Layer_x0020_1">
  <metadata id="CorelCorpID_0Corel-Layer"></metadata>
  <path d="M14.74 211.33c5.13,0.08 9.43,0.5 12.92,1.26l-0.38 4.03c-4.08,-0.21 -8.18,-0.32 -12.29,-0.32 -2.44,0 -4.22,0.12 -5.36,0.35 -1.13,0.23 -1.99,0.81 -2.55,1.73 -0.57,0.92 -0.85,2.44 -0.85,4.54 0,2.31 0.41,3.95 1.23,4.92 0.82,0.97 2.24,1.7 4.26,2.21l8.83 2.21c3.24,0.8 5.51,2.16 6.81,4.1 1.3,1.93 1.95,4.64 1.95,8.13 0,3.28 -0.49,5.77 -1.48,7.47 -0.99,1.7 -2.51,2.86 -4.57,3.47 -2.06,0.61 -4.9,0.91 -8.51,0.91 -4.58,0 -9.08,-0.4 -13.49,-1.2l0.38 -4.1c2.35,0.08 3.87,0.13 4.54,0.13 3.07,0.13 5.4,0.19 7,0.19 2.98,0 5.17,-0.14 6.56,-0.41 1.39,-0.27 2.4,-0.9 3.03,-1.89 0.63,-0.99 0.95,-2.55 0.95,-4.7 0,-1.64 -0.19,-2.92 -0.57,-3.85 -0.38,-0.92 -0.95,-1.63 -1.7,-2.11 -0.76,-0.48 -1.83,-0.89 -3.22,-1.23l-9.01 -2.27c-3.07,-0.76 -5.26,-2.11 -6.59,-4.07 -1.32,-1.95 -1.99,-4.63 -1.99,-8.04 0,-3.32 0.48,-5.8 1.45,-7.44 0.97,-1.64 2.43,-2.72 4.38,-3.25 1.95,-0.53 4.72,-0.79 8.29,-0.79z" class="fil0"></path>
  <path d="M53.58 211.26c4.29,0 7.67,0.7 10.15,2.11 2.48,1.41 4.27,3.74 5.36,7 1.09,3.26 1.64,7.75 1.64,13.46 0,5.72 -0.55,10.2 -1.64,13.46 -1.09,3.26 -2.88,5.59 -5.36,7 -2.48,1.41 -5.86,2.11 -10.15,2.11 -4.33,0 -7.72,-0.7 -10.18,-2.11 -2.46,-1.41 -4.24,-3.74 -5.36,-7 -1.11,-3.26 -1.67,-7.74 -1.67,-13.46 0,-5.71 0.56,-10.2 1.67,-13.46 1.11,-3.26 2.9,-5.59 5.36,-7 2.46,-1.41 5.85,-2.11 10.18,-2.11zm0 4.98c-2.9,0 -5.16,0.55 -6.78,1.64 -1.62,1.09 -2.79,2.9 -3.5,5.42 -0.71,2.52 -1.07,6.03 -1.07,10.53 0,4.5 0.36,8.01 1.07,10.53 0.71,2.52 1.88,4.33 3.5,5.42 1.62,1.09 3.88,1.64 6.78,1.64 2.9,0 5.16,-0.55 6.78,-1.64 1.62,-1.09 2.79,-2.9 3.5,-5.42 0.71,-2.52 1.07,-6.03 1.07,-10.53 0,-4.5 -0.36,-8.01 -1.07,-10.53 -0.71,-2.52 -1.88,-4.33 -3.5,-5.42 -1.62,-1.09 -3.88,-1.64 -6.78,-1.64z" class="fil0" id="_1"></path>
  <path d="M89.77 216.75c-1.47,0 -2.54,0.33 -3.22,0.98 -0.67,0.65 -1.01,1.71 -1.01,3.18l0 10.09 18.16 0 0 4.48 -18.16 0 0 20.11 -5.55 0 0 -35.75c0,-2.48 0.76,-4.4 2.27,-5.77 1.51,-1.37 3.55,-2.05 6.12,-2.05 8.28,0 14.29,0.15 18.03,0.44l-0.32 4.29 -16.33 0z" class="fil0" id="_2"></path>
  <polygon points="143.73,217 129.67,217 129.67,255.58 124.13,255.58 124.13,217 110.13,217 110.13,212.08 143.73,212.08" class="fil0" id="_3"></polygon>
  <path d="M194.23 253.95c-0.13,0.5 -0.39,0.9 -0.79,1.2 -0.4,0.29 -0.87,0.44 -1.42,0.44l-6.3 0c-0.55,0 -1.02,-0.16 -1.42,-0.47 -0.4,-0.31 -0.64,-0.72 -0.73,-1.23l-6.81 -32.72c-0.25,-1.09 -0.59,-2.73 -1.01,-4.92l-1.32 0 -0.95 4.92 -6.74 32.72c-0.13,0.5 -0.39,0.91 -0.79,1.23 -0.4,0.32 -0.87,0.47 -1.42,0.47l-6.37 0c-0.55,0 -1.02,-0.16 -1.42,-0.47 -0.4,-0.31 -0.64,-0.7 -0.73,-1.17l-8.83 -41.86 5.86 0 6.81 33.92c0.21,0.97 0.42,2.21 0.63,3.72l0.25 1.64 1.45 0c0.34,-1.98 0.67,-3.76 1.01,-5.36l6.75 -32.09c0.08,-0.55 0.33,-0.99 0.72,-1.32 0.4,-0.34 0.87,-0.5 1.42,-0.5l6.05 0c0.55,0 1.01,0.17 1.39,0.5 0.38,0.34 0.63,0.78 0.76,1.32l6.74 32.09c0.42,2.06 0.71,3.85 0.88,5.36l1.58 0c0.38,-2.52 0.65,-4.29 0.82,-5.3l6.87 -33.98 5.86 0 -8.83 41.86z" class="fil0" id="_4"></path>
  <path d="M232.19 241.97l-17.9 0 -4.29 13.62 -5.74 0 14 -41.99c0.13,-0.46 0.38,-0.83 0.76,-1.1 0.38,-0.27 0.82,-0.41 1.32,-0.41l5.8 0c0.5,0 0.95,0.14 1.32,0.41 0.38,0.27 0.63,0.64 0.76,1.1l14 41.99 -5.74 0 -4.29 -13.62zm-1.51 -4.79l-5.49 -17.27c-0.38,-1.09 -0.74,-2.27 -1.07,-3.53l-1.77 0c-0.34,1.26 -0.69,2.44 -1.07,3.53l-5.48 17.27 14.88 0z" class="fil0" id="_5"></path>
  <path d="M278.97 255.58l-5.93 0 -3.85 -13.62c-0.55,-1.64 -1.28,-2.81 -2.21,-3.5 -0.92,-0.69 -2.12,-1.04 -3.59,-1.04l-9.58 -0.06 0 18.22 -5.48 0 0 -43.5c2.27,-0.25 4.4,-0.41 6.4,-0.47 2,-0.06 4.87,-0.09 8.61,-0.09 3.49,0 6.23,0.38 8.23,1.13 2,0.76 3.47,2.04 4.41,3.85 0.95,1.81 1.42,4.33 1.42,7.57 0,3.57 -0.62,6.24 -1.86,8.01 -1.24,1.77 -3.29,2.84 -6.15,3.22l0 0.32c1.18,0.29 2.25,0.98 3.22,2.05 0.97,1.07 1.68,2.47 2.14,4.19l4.22 13.74zm-15.76 -22.95c2.23,-0.04 3.95,-0.3 5.17,-0.79 1.22,-0.48 2.09,-1.3 2.62,-2.46 0.53,-1.16 0.79,-2.83 0.79,-5.01 0,-2.14 -0.26,-3.79 -0.79,-4.95 -0.53,-1.16 -1.4,-1.96 -2.62,-2.43 -1.22,-0.46 -2.94,-0.69 -5.17,-0.69l-9.39 0.06 0 16.27 9.39 0z" class="fil0" id="_6"></path>
  <path d="M313.71 250.98l0.25 4.29c-3.87,0.25 -10.09,0.38 -18.66,0.38 -2.56,0 -4.59,-0.68 -6.08,-2.05 -1.49,-1.37 -2.26,-3.21 -2.3,-5.52l0 -28.5c0.04,-2.31 0.81,-4.15 2.3,-5.52 1.49,-1.37 3.52,-2.05 6.08,-2.05 8.57,0 14.79,0.13 18.66,0.38l-0.25 4.35 -17.46 0c-1.3,0 -2.26,0.34 -2.87,1.01 -0.61,0.67 -0.91,1.72 -0.91,3.15l0 9.46 18.79 0 0 4.48 -18.79 0 0 11.92c0,1.47 0.3,2.54 0.91,3.22 0.61,0.67 1.57,1.01 2.87,1.01l17.46 0z" class="fil0" id="_7"></path>
  <path d="M376.88 255.33c-0.88,0.25 -1.99,0.45 -3.31,0.6 -1.32,0.15 -2.45,0.22 -3.37,0.22 -2.14,0 -3.86,-0.46 -5.14,-1.39 -1.28,-0.92 -2.09,-2.27 -2.43,-4.03 -1.85,1.98 -3.89,3.38 -6.12,4.22 -2.23,0.84 -5.02,1.26 -8.39,1.26 -3.11,0 -5.59,-0.37 -7.44,-1.1 -1.85,-0.74 -3.19,-1.94 -4.03,-3.62 -0.84,-1.68 -1.26,-3.99 -1.26,-6.94 0,-3.49 0.65,-6.2 1.95,-8.13 1.3,-1.93 3.49,-3.03 6.56,-3.28l0 -0.25c-2.56,-0.25 -4.41,-1.21 -5.55,-2.87 -1.14,-1.66 -1.7,-4.09 -1.7,-7.28 0,-3.28 0.56,-5.73 1.67,-7.34 1.11,-1.62 2.8,-2.68 5.04,-3.18 2.25,-0.5 5.5,-0.76 9.74,-0.76 3.87,0 7.21,0.21 10.02,0.63l-0.63 4.1c-1.72,-0.13 -4.92,-0.19 -9.58,-0.19 -2.86,0 -5.02,0.18 -6.49,0.54 -1.47,0.36 -2.53,1.07 -3.18,2.14 -0.65,1.07 -0.98,2.68 -0.98,4.82 0,1.98 0.26,3.5 0.79,4.57 0.53,1.07 1.39,1.82 2.59,2.24 1.2,0.42 2.89,0.63 5.08,0.63l11.91 0 0.44 -8.07 4.48 0 0 8.07 7.94 0 -0.06 4.22 -7.88 0 0 12.17c0,1.47 0.31,2.52 0.91,3.15 0.61,0.63 1.65,0.95 3.12,0.95l4.67 0 0.63 3.91zm-27.49 -3.91c2.86,-0.04 5.35,-0.47 7.47,-1.29 2.12,-0.82 4,-2.07 5.64,-3.75l0 -11.22 -12.04 0c-2.35,0 -4.19,0.25 -5.52,0.76 -1.32,0.5 -2.28,1.37 -2.87,2.58 -0.59,1.22 -0.88,2.94 -0.88,5.17 0,2.02 0.25,3.58 0.76,4.7 0.5,1.11 1.35,1.9 2.52,2.36 1.18,0.46 2.82,0.69 4.92,0.69z" class="fil0" id="_8"></path>
  <path d="M411.49 211.33c5.13,0.08 9.43,0.5 12.92,1.26l-0.38 4.03c-4.08,-0.21 -8.18,-0.32 -12.29,-0.32 -2.44,0 -4.22,0.12 -5.36,0.35 -1.13,0.23 -1.99,0.81 -2.55,1.73 -0.57,0.92 -0.85,2.44 -0.85,4.54 0,2.31 0.41,3.95 1.23,4.92 0.82,0.97 2.24,1.7 4.26,2.21l8.83 2.21c3.24,0.8 5.51,2.16 6.81,4.1 1.3,1.93 1.95,4.64 1.95,8.13 0,3.28 -0.49,5.77 -1.48,7.47 -0.99,1.7 -2.51,2.86 -4.57,3.47 -2.06,0.61 -4.9,0.91 -8.51,0.91 -4.58,0 -9.08,-0.4 -13.49,-1.2l0.38 -4.1c2.35,0.08 3.87,0.13 4.54,0.13 3.07,0.13 5.4,0.19 7,0.19 2.98,0 5.17,-0.14 6.56,-0.41 1.39,-0.27 2.4,-0.9 3.03,-1.89 0.63,-0.99 0.95,-2.55 0.95,-4.7 0,-1.64 -0.19,-2.92 -0.57,-3.85 -0.38,-0.92 -0.95,-1.63 -1.7,-2.11 -0.76,-0.48 -1.83,-0.89 -3.22,-1.23l-9.01 -2.27c-3.07,-0.76 -5.26,-2.11 -6.59,-4.07 -1.32,-1.95 -1.99,-4.63 -1.99,-8.04 0,-3.32 0.48,-5.8 1.45,-7.44 0.97,-1.64 2.43,-2.72 4.38,-3.25 1.95,-0.53 4.72,-0.79 8.29,-0.79z" class="fil0" id="_9"></path>
  <path d="M461.17 250.98l0.25 4.29c-3.87,0.25 -10.09,0.38 -18.66,0.38 -2.56,0 -4.59,-0.68 -6.08,-2.05 -1.49,-1.37 -2.26,-3.21 -2.3,-5.52l0 -28.5c0.04,-2.31 0.81,-4.15 2.3,-5.52 1.49,-1.37 3.52,-2.05 6.08,-2.05 8.57,0 14.79,0.13 18.66,0.38l-0.25 4.35 -17.46 0c-1.3,0 -2.26,0.34 -2.87,1.01 -0.61,0.67 -0.91,1.72 -0.91,3.15l0 9.46 18.79 0 0 4.48 -18.79 0 0 11.92c0,1.47 0.3,2.54 0.91,3.22 0.61,0.67 1.57,1.01 2.87,1.01l17.46 0z" class="fil0" id="_10"></path>
  <path d="M500.7 255.58l-5.93 0 -3.85 -13.62c-0.55,-1.64 -1.28,-2.81 -2.21,-3.5 -0.92,-0.69 -2.12,-1.04 -3.59,-1.04l-9.58 -0.06 0 18.22 -5.48 0 0 -43.5c2.27,-0.25 4.4,-0.41 6.4,-0.47 2,-0.06 4.87,-0.09 8.61,-0.09 3.49,0 6.23,0.38 8.23,1.13 2,0.76 3.47,2.04 4.41,3.85 0.95,1.81 1.42,4.33 1.42,7.57 0,3.57 -0.62,6.24 -1.86,8.01 -1.24,1.77 -3.29,2.84 -6.15,3.22l0 0.32c1.18,0.29 2.25,0.98 3.22,2.05 0.97,1.07 1.68,2.47 2.14,4.19l4.22 13.74zm-15.76 -22.95c2.23,-0.04 3.95,-0.3 5.17,-0.79 1.22,-0.48 2.09,-1.3 2.62,-2.46 0.53,-1.16 0.79,-2.83 0.79,-5.01 0,-2.14 -0.26,-3.79 -0.79,-4.95 -0.53,-1.16 -1.4,-1.96 -2.62,-2.43 -1.22,-0.46 -2.94,-0.69 -5.17,-0.69l-9.39 0.06 0 16.27 9.39 0z" class="fil0" id="_11"></path>
  <path d="M527.43 254.01c-0.17,0.46 -0.44,0.84 -0.82,1.14 -0.38,0.29 -0.82,0.44 -1.32,0.44l-5.61 0c-0.5,0 -0.96,-0.15 -1.36,-0.44 -0.4,-0.29 -0.66,-0.67 -0.79,-1.14l-13.18 -41.92 5.74 0 10.28 34.49c0.59,2.1 1.01,3.68 1.26,4.73l1.7 0c0.42,-1.72 0.86,-3.32 1.32,-4.79l10.21 -34.42 5.74 0 -13.18 41.92z" class="fil0" id="_12"></path>
  <polygon points="552.71,255.58 547.17,255.58 547.17,212.08 552.71,212.08" class="fil0" id="_13"></polygon>
  <path d="M579.13 211.33c2.65,0 4.81,0.09 6.49,0.28 1.68,0.19 3.47,0.51 5.36,0.98l-0.57 4.22c-2.1,-0.21 -3.92,-0.36 -5.45,-0.44 -1.53,-0.08 -3.48,-0.13 -5.83,-0.13 -2.9,0 -5.15,0.55 -6.75,1.64 -1.6,1.09 -2.74,2.9 -3.44,5.42 -0.69,2.52 -1.04,6.03 -1.04,10.53 0,4.5 0.35,8.01 1.04,10.53 0.69,2.52 1.84,4.33 3.44,5.42 1.6,1.09 3.85,1.64 6.75,1.64 4.88,0 8.93,-0.23 12.17,-0.69l0.57 4.16c-1.89,0.5 -3.79,0.87 -5.71,1.1 -1.91,0.23 -4.26,0.35 -7.03,0.35 -4.25,0 -7.6,-0.73 -10.06,-2.18 -2.46,-1.45 -4.24,-3.8 -5.36,-7.06 -1.11,-3.26 -1.67,-7.68 -1.67,-13.27 0,-5.59 0.56,-10.01 1.67,-13.27 1.11,-3.26 2.9,-5.61 5.36,-7.06 2.46,-1.45 5.81,-2.17 10.06,-2.17z" class="fil0" id="_14"></path>
  <path d="M626.04 250.98l0.25 4.29c-3.87,0.25 -10.09,0.38 -18.66,0.38 -2.56,0 -4.59,-0.68 -6.08,-2.05 -1.49,-1.37 -2.26,-3.21 -2.3,-5.52l0 -28.5c0.04,-2.31 0.81,-4.15 2.3,-5.52 1.49,-1.37 3.52,-2.05 6.08,-2.05 8.57,0 14.79,0.13 18.66,0.38l-0.25 4.35 -17.46 0c-1.3,0 -2.26,0.34 -2.87,1.01 -0.61,0.67 -0.91,1.72 -0.91,3.15l0 9.46 18.79 0 0 4.48 -18.79 0 0 11.92c0,1.47 0.3,2.54 0.91,3.22 0.61,0.67 1.57,1.01 2.87,1.01l17.46 0z" class="fil0" id="_15"></path>
  <path d="M647.03 211.33c5.13,0.08 9.43,0.5 12.92,1.26l-0.38 4.03c-4.08,-0.21 -8.18,-0.32 -12.29,-0.32 -2.44,0 -4.22,0.12 -5.36,0.35 -1.13,0.23 -1.99,0.81 -2.55,1.73 -0.57,0.92 -0.85,2.44 -0.85,4.54 0,2.31 0.41,3.95 1.23,4.92 0.82,0.97 2.24,1.7 4.26,2.21l8.83 2.21c3.24,0.8 5.51,2.16 6.81,4.1 1.3,1.93 1.95,4.64 1.95,8.13 0,3.28 -0.49,5.77 -1.48,7.47 -0.99,1.7 -2.51,2.86 -4.57,3.47 -2.06,0.61 -4.9,0.91 -8.51,0.91 -4.58,0 -9.08,-0.4 -13.49,-1.2l0.38 -4.1c2.35,0.08 3.87,0.13 4.54,0.13 3.07,0.13 5.4,0.19 7,0.19 2.98,0 5.17,-0.14 6.56,-0.41 1.39,-0.27 2.4,-0.9 3.03,-1.89 0.63,-0.99 0.95,-2.55 0.95,-4.7 0,-1.64 -0.19,-2.92 -0.57,-3.85 -0.38,-0.92 -0.95,-1.63 -1.7,-2.11 -0.76,-0.48 -1.83,-0.89 -3.22,-1.23l-9.01 -2.27c-3.07,-0.76 -5.26,-2.11 -6.59,-4.07 -1.32,-1.95 -1.99,-4.63 -1.99,-8.04 0,-3.32 0.48,-5.8 1.45,-7.44 0.97,-1.64 2.43,-2.72 4.38,-3.25 1.95,-0.53 4.72,-0.79 8.29,-0.79z" class="fil0" id="_16"></path>
  <path d="M699.3 211.51c3.57,0 6.36,0.4 8.35,1.2 2,0.8 3.44,2.18 4.32,4.13 0.88,1.95 1.32,4.72 1.32,8.29 0,3.57 -0.43,6.33 -1.29,8.29 -0.86,1.96 -2.24,3.33 -4.13,4.13 -1.89,0.8 -4.54,1.2 -7.94,1.2 -3.07,0 -6.41,-0.17 -10.02,-0.5l0 17.34 -5.55 0 0 -43.5c2.27,-0.25 4.39,-0.41 6.37,-0.47 1.98,-0.06 4.83,-0.09 8.57,-0.09zm-0.06 22.44c2.19,-0.04 3.88,-0.32 5.08,-0.82 1.2,-0.5 2.06,-1.38 2.59,-2.62 0.53,-1.24 0.79,-3.04 0.79,-5.39 0,-2.35 -0.26,-4.16 -0.79,-5.42 -0.53,-1.26 -1.39,-2.14 -2.59,-2.65 -1.2,-0.5 -2.89,-0.76 -5.08,-0.76 -4.58,0 -7.69,0.02 -9.33,0.06l0 17.59 9.33 0z" class="fil0" id="_17"></path>
  <path d="M740.21 254.01c-0.17,0.46 -0.44,0.84 -0.82,1.14 -0.38,0.29 -0.82,0.44 -1.32,0.44l-5.61 0c-0.5,0 -0.96,-0.15 -1.36,-0.44 -0.4,-0.29 -0.66,-0.67 -0.79,-1.14l-13.18 -41.92 5.74 0 10.28 34.49c0.59,2.1 1.01,3.68 1.26,4.73l1.7 0c0.42,-1.72 0.86,-3.32 1.32,-4.79l10.21 -34.42 5.74 0 -13.18 41.92z" class="fil0" id="_18"></path>
  <polygon points="789.58,217 775.52,217 775.52,255.58 769.97,255.58 769.97,217 755.98,217 755.98,212.08 789.58,212.08" class="fil0" id="_19"></polygon>
  <path d="M795.57 248.14c0.76,0 1.28,0.15 1.58,0.44 0.29,0.29 0.44,0.82 0.44,1.58l0 3.4c0,0.76 -0.15,1.28 -0.44,1.58 -0.29,0.29 -0.82,0.44 -1.58,0.44l-1.77 0c-0.71,0 -1.23,-0.15 -1.54,-0.44 -0.32,-0.29 -0.47,-0.82 -0.47,-1.58l0 -3.4c0,-0.76 0.16,-1.28 0.47,-1.58 0.32,-0.29 0.83,-0.44 1.54,-0.44l1.77 0z" class="fil0" id="_20"></path>
  <path d="M826.84 246.76c0,1.43 0.34,2.48 1.01,3.15 0.67,0.67 1.74,1.01 3.22,1.01l15.7 0 0.25 4.29c-3.66,0.29 -9.27,0.44 -16.83,0.44 -3.07,0 -5.31,-0.74 -6.71,-2.21 -1.41,-1.47 -2.11,-3.47 -2.11,-5.99l0 -35.37 5.49 0 0 34.68z" class="fil0" id="_21"></path>
  <polygon points="877.02,217 862.96,217 862.96,255.58 857.42,255.58 857.42,217 843.42,217 843.42,212.08 877.02,212.08" class="fil0" id="_22"></polygon>
  <path d="M899.53 211.51c4.25,0 7.59,0.69 10.02,2.08 2.44,1.39 4.2,3.69 5.3,6.9 1.09,3.22 1.64,7.66 1.64,13.33 0,5.67 -0.55,10.12 -1.64,13.34 -1.09,3.22 -2.86,5.52 -5.3,6.9 -2.44,1.39 -5.78,2.08 -10.02,2.08 -4.88,0 -10.05,-0.19 -15.51,-0.57l0 -43.5c5.46,-0.38 10.63,-0.57 15.51,-0.57zm0 39.78c2.82,0 5.02,-0.55 6.62,-1.64 1.6,-1.09 2.75,-2.89 3.47,-5.39 0.71,-2.5 1.07,-5.98 1.07,-10.43 0,-4.46 -0.36,-7.94 -1.07,-10.46 -0.71,-2.52 -1.87,-4.33 -3.47,-5.42 -1.6,-1.09 -3.8,-1.64 -6.62,-1.64 -2.69,0 -6.01,0.04 -9.96,0.13l0 34.74c3.78,0.08 7.1,0.13 9.96,0.13z" class="fil0" id="_23"></path>
  <path d="M928.34 248.14c0.76,0 1.28,0.15 1.58,0.44 0.29,0.29 0.44,0.82 0.44,1.58l0 3.4c0,0.76 -0.15,1.28 -0.44,1.58 -0.29,0.29 -0.82,0.44 -1.58,0.44l-1.77 0c-0.71,0 -1.23,-0.15 -1.54,-0.44 -0.32,-0.29 -0.47,-0.82 -0.47,-1.58l0 -3.4c0,-0.76 0.16,-1.28 0.47,-1.58 0.32,-0.29 0.83,-0.44 1.54,-0.44l1.77 0z" class="fil0" id="_24"></path>
  <path d="M14.74 211.33c5.13,0.08 9.43,0.5 12.92,1.26l-0.38 4.03c-4.08,-0.21 -8.18,-0.32 -12.29,-0.32 -2.44,0 -4.22,0.12 -5.36,0.35 -1.13,0.23 -1.99,0.81 -2.55,1.73 -0.57,0.92 -0.85,2.44 -0.85,4.54 0,2.31 0.41,3.95 1.23,4.92 0.82,0.97 2.24,1.7 4.26,2.21l8.83 2.21c3.24,0.8 5.51,2.16 6.81,4.1 1.3,1.93 1.95,4.64 1.95,8.13 0,3.28 -0.49,5.77 -1.48,7.47 -0.99,1.7 -2.51,2.86 -4.57,3.47 -2.06,0.61 -4.9,0.91 -8.51,0.91 -4.58,0 -9.08,-0.4 -13.49,-1.2l0.38 -4.1c2.35,0.08 3.87,0.13 4.54,0.13 3.07,0.13 5.4,0.19 7,0.19 2.98,0 5.17,-0.14 6.56,-0.41 1.39,-0.27 2.4,-0.9 3.03,-1.89 0.63,-0.99 0.95,-2.55 0.95,-4.7 0,-1.64 -0.19,-2.92 -0.57,-3.85 -0.38,-0.92 -0.95,-1.63 -1.7,-2.11 -0.76,-0.48 -1.83,-0.89 -3.22,-1.23l-9.01 -2.27c-3.07,-0.76 -5.26,-2.11 -6.59,-4.07 -1.32,-1.95 -1.99,-4.63 -1.99,-8.04 0,-3.32 0.48,-5.8 1.45,-7.44 0.97,-1.64 2.43,-2.72 4.38,-3.25 1.95,-0.53 4.72,-0.79 8.29,-0.79z" class="fil1 str0" id="_25"></path>
  <path d="M53.58 211.26c4.29,0 7.67,0.7 10.15,2.11 2.48,1.41 4.27,3.74 5.36,7 1.09,3.26 1.64,7.75 1.64,13.46 0,5.72 -0.55,10.2 -1.64,13.46 -1.09,3.26 -2.88,5.59 -5.36,7 -2.48,1.41 -5.86,2.11 -10.15,2.11 -4.33,0 -7.72,-0.7 -10.18,-2.11 -2.46,-1.41 -4.24,-3.74 -5.36,-7 -1.11,-3.26 -1.67,-7.74 -1.67,-13.46 0,-5.71 0.56,-10.2 1.67,-13.46 1.11,-3.26 2.9,-5.59 5.36,-7 2.46,-1.41 5.85,-2.11 10.18,-2.11zm0 4.98c-2.9,0 -5.16,0.55 -6.78,1.64 -1.62,1.09 -2.79,2.9 -3.5,5.42 -0.71,2.52 -1.07,6.03 -1.07,10.53 0,4.5 0.36,8.01 1.07,10.53 0.71,2.52 1.88,4.33 3.5,5.42 1.62,1.09 3.88,1.64 6.78,1.64 2.9,0 5.16,-0.55 6.78,-1.64 1.62,-1.09 2.79,-2.9 3.5,-5.42 0.71,-2.52 1.07,-6.03 1.07,-10.53 0,-4.5 -0.36,-8.01 -1.07,-10.53 -0.71,-2.52 -1.88,-4.33 -3.5,-5.42 -1.62,-1.09 -3.88,-1.64 -6.78,-1.64z" class="fil1 str0" id="_26"></path>
  <path d="M89.77 216.75c-1.47,0 -2.54,0.33 -3.22,0.98 -0.67,0.65 -1.01,1.71 -1.01,3.18l0 10.09 18.16 0 0 4.48 -18.16 0 0 20.11 -5.55 0 0 -35.75c0,-2.48 0.76,-4.4 2.27,-5.77 1.51,-1.37 3.55,-2.05 6.12,-2.05 8.28,0 14.29,0.15 18.03,0.44l-0.32 4.29 -16.33 0z" class="fil1 str0" id="_27"></path>
  <polygon points="143.73,217 129.67,217 129.67,255.58 124.13,255.58 124.13,217 110.13,217 110.13,212.08 143.73,212.08" class="fil1 str0" id="_28"></polygon>
  <path d="M194.23 253.95c-0.13,0.5 -0.39,0.9 -0.79,1.2 -0.4,0.29 -0.87,0.44 -1.42,0.44l-6.3 0c-0.55,0 -1.02,-0.16 -1.42,-0.47 -0.4,-0.31 -0.64,-0.72 -0.73,-1.23l-6.81 -32.72c-0.25,-1.09 -0.59,-2.73 -1.01,-4.92l-1.32 0 -0.95 4.92 -6.74 32.72c-0.13,0.5 -0.39,0.91 -0.79,1.23 -0.4,0.32 -0.87,0.47 -1.42,0.47l-6.37 0c-0.55,0 -1.02,-0.16 -1.42,-0.47 -0.4,-0.31 -0.64,-0.7 -0.73,-1.17l-8.83 -41.86 5.86 0 6.81 33.92c0.21,0.97 0.42,2.21 0.63,3.72l0.25 1.64 1.45 0c0.34,-1.98 0.67,-3.76 1.01,-5.36l6.75 -32.09c0.08,-0.55 0.33,-0.99 0.72,-1.32 0.4,-0.34 0.87,-0.5 1.42,-0.5l6.05 0c0.55,0 1.01,0.17 1.39,0.5 0.38,0.34 0.63,0.78 0.76,1.32l6.74 32.09c0.42,2.06 0.71,3.85 0.88,5.36l1.58 0c0.38,-2.52 0.65,-4.29 0.82,-5.3l6.87 -33.98 5.86 0 -8.83 41.86z" class="fil1 str0" id="_29"></path>
  <path d="M232.19 241.97l-17.9 0 -4.29 13.62 -5.74 0 14 -41.99c0.13,-0.46 0.38,-0.83 0.76,-1.1 0.38,-0.27 0.82,-0.41 1.32,-0.41l5.8 0c0.5,0 0.95,0.14 1.32,0.41 0.38,0.27 0.63,0.64 0.76,1.1l14 41.99 -5.74 0 -4.29 -13.62zm-1.51 -4.79l-5.49 -17.27c-0.38,-1.09 -0.74,-2.27 -1.07,-3.53l-1.77 0c-0.34,1.26 -0.69,2.44 -1.07,3.53l-5.48 17.27 14.88 0z" class="fil1 str0" id="_30"></path>
  <path d="M278.97 255.58l-5.93 0 -3.85 -13.62c-0.55,-1.64 -1.28,-2.81 -2.21,-3.5 -0.92,-0.69 -2.12,-1.04 -3.59,-1.04l-9.58 -0.06 0 18.22 -5.48 0 0 -43.5c2.27,-0.25 4.4,-0.41 6.4,-0.47 2,-0.06 4.87,-0.09 8.61,-0.09 3.49,0 6.23,0.38 8.23,1.13 2,0.76 3.47,2.04 4.41,3.85 0.95,1.81 1.42,4.33 1.42,7.57 0,3.57 -0.62,6.24 -1.86,8.01 -1.24,1.77 -3.29,2.84 -6.15,3.22l0 0.32c1.18,0.29 2.25,0.98 3.22,2.05 0.97,1.07 1.68,2.47 2.14,4.19l4.22 13.74zm-15.76 -22.95c2.23,-0.04 3.95,-0.3 5.17,-0.79 1.22,-0.48 2.09,-1.3 2.62,-2.46 0.53,-1.16 0.79,-2.83 0.79,-5.01 0,-2.14 -0.26,-3.79 -0.79,-4.95 -0.53,-1.16 -1.4,-1.96 -2.62,-2.43 -1.22,-0.46 -2.94,-0.69 -5.17,-0.69l-9.39 0.06 0 16.27 9.39 0z" class="fil1 str0" id="_31"></path>
  <path d="M313.71 250.98l0.25 4.29c-3.87,0.25 -10.09,0.38 -18.66,0.38 -2.56,0 -4.59,-0.68 -6.08,-2.05 -1.49,-1.37 -2.26,-3.21 -2.3,-5.52l0 -28.5c0.04,-2.31 0.81,-4.15 2.3,-5.52 1.49,-1.37 3.52,-2.05 6.08,-2.05 8.57,0 14.79,0.13 18.66,0.38l-0.25 4.35 -17.46 0c-1.3,0 -2.26,0.34 -2.87,1.01 -0.61,0.67 -0.91,1.72 -0.91,3.15l0 9.46 18.79 0 0 4.48 -18.79 0 0 11.92c0,1.47 0.3,2.54 0.91,3.22 0.61,0.67 1.57,1.01 2.87,1.01l17.46 0z" class="fil1 str0" id="_32"></path>
  <path d="M376.88 255.33c-0.88,0.25 -1.99,0.45 -3.31,0.6 -1.32,0.15 -2.45,0.22 -3.37,0.22 -2.14,0 -3.86,-0.46 -5.14,-1.39 -1.28,-0.92 -2.09,-2.27 -2.43,-4.03 -1.85,1.98 -3.89,3.38 -6.12,4.22 -2.23,0.84 -5.02,1.26 -8.39,1.26 -3.11,0 -5.59,-0.37 -7.44,-1.1 -1.85,-0.74 -3.19,-1.94 -4.03,-3.62 -0.84,-1.68 -1.26,-3.99 -1.26,-6.94 0,-3.49 0.65,-6.2 1.95,-8.13 1.3,-1.93 3.49,-3.03 6.56,-3.28l0 -0.25c-2.56,-0.25 -4.41,-1.21 -5.55,-2.87 -1.14,-1.66 -1.7,-4.09 -1.7,-7.28 0,-3.28 0.56,-5.73 1.67,-7.34 1.11,-1.62 2.8,-2.68 5.04,-3.18 2.25,-0.5 5.5,-0.76 9.74,-0.76 3.87,0 7.21,0.21 10.02,0.63l-0.63 4.1c-1.72,-0.13 -4.92,-0.19 -9.58,-0.19 -2.86,0 -5.02,0.18 -6.49,0.54 -1.47,0.36 -2.53,1.07 -3.18,2.14 -0.65,1.07 -0.98,2.68 -0.98,4.82 0,1.98 0.26,3.5 0.79,4.57 0.53,1.07 1.39,1.82 2.59,2.24 1.2,0.42 2.89,0.63 5.08,0.63l11.91 0 0.44 -8.07 4.48 0 0 8.07 7.94 0 -0.06 4.22 -7.88 0 0 12.17c0,1.47 0.31,2.52 0.91,3.15 0.61,0.63 1.65,0.95 3.12,0.95l4.67 0 0.63 3.91zm-27.49 -3.91c2.86,-0.04 5.35,-0.47 7.47,-1.29 2.12,-0.82 4,-2.07 5.64,-3.75l0 -11.22 -12.04 0c-2.35,0 -4.19,0.25 -5.52,0.76 -1.32,0.5 -2.28,1.37 -2.87,2.58 -0.59,1.22 -0.88,2.94 -0.88,5.17 0,2.02 0.25,3.58 0.76,4.7 0.5,1.11 1.35,1.9 2.52,2.36 1.18,0.46 2.82,0.69 4.92,0.69z" class="fil1 str0" id="_33"></path>
  <path d="M411.49 211.33c5.13,0.08 9.43,0.5 12.92,1.26l-0.38 4.03c-4.08,-0.21 -8.18,-0.32 -12.29,-0.32 -2.44,0 -4.22,0.12 -5.36,0.35 -1.13,0.23 -1.99,0.81 -2.55,1.73 -0.57,0.92 -0.85,2.44 -0.85,4.54 0,2.31 0.41,3.95 1.23,4.92 0.82,0.97 2.24,1.7 4.26,2.21l8.83 2.21c3.24,0.8 5.51,2.16 6.81,4.1 1.3,1.93 1.95,4.64 1.95,8.13 0,3.28 -0.49,5.77 -1.48,7.47 -0.99,1.7 -2.51,2.86 -4.57,3.47 -2.06,0.61 -4.9,0.91 -8.51,0.91 -4.58,0 -9.08,-0.4 -13.49,-1.2l0.38 -4.1c2.35,0.08 3.87,0.13 4.54,0.13 3.07,0.13 5.4,0.19 7,0.19 2.98,0 5.17,-0.14 6.56,-0.41 1.39,-0.27 2.4,-0.9 3.03,-1.89 0.63,-0.99 0.95,-2.55 0.95,-4.7 0,-1.64 -0.19,-2.92 -0.57,-3.85 -0.38,-0.92 -0.95,-1.63 -1.7,-2.11 -0.76,-0.48 -1.83,-0.89 -3.22,-1.23l-9.01 -2.27c-3.07,-0.76 -5.26,-2.11 -6.59,-4.07 -1.32,-1.95 -1.99,-4.63 -1.99,-8.04 0,-3.32 0.48,-5.8 1.45,-7.44 0.97,-1.64 2.43,-2.72 4.38,-3.25 1.95,-0.53 4.72,-0.79 8.29,-0.79z" class="fil1 str0" id="_34"></path>
  <path d="M461.17 250.98l0.25 4.29c-3.87,0.25 -10.09,0.38 -18.66,0.38 -2.56,0 -4.59,-0.68 -6.08,-2.05 -1.49,-1.37 -2.26,-3.21 -2.3,-5.52l0 -28.5c0.04,-2.31 0.81,-4.15 2.3,-5.52 1.49,-1.37 3.52,-2.05 6.08,-2.05 8.57,0 14.79,0.13 18.66,0.38l-0.25 4.35 -17.46 0c-1.3,0 -2.26,0.34 -2.87,1.01 -0.61,0.67 -0.91,1.72 -0.91,3.15l0 9.46 18.79 0 0 4.48 -18.79 0 0 11.92c0,1.47 0.3,2.54 0.91,3.22 0.61,0.67 1.57,1.01 2.87,1.01l17.46 0z" class="fil1 str0" id="_35"></path>
  <path d="M500.7 255.58l-5.93 0 -3.85 -13.62c-0.55,-1.64 -1.28,-2.81 -2.21,-3.5 -0.92,-0.69 -2.12,-1.04 -3.59,-1.04l-9.58 -0.06 0 18.22 -5.48 0 0 -43.5c2.27,-0.25 4.4,-0.41 6.4,-0.47 2,-0.06 4.87,-0.09 8.61,-0.09 3.49,0 6.23,0.38 8.23,1.13 2,0.76 3.47,2.04 4.41,3.85 0.95,1.81 1.42,4.33 1.42,7.57 0,3.57 -0.62,6.24 -1.86,8.01 -1.24,1.77 -3.29,2.84 -6.15,3.22l0 0.32c1.18,0.29 2.25,0.98 3.22,2.05 0.97,1.07 1.68,2.47 2.14,4.19l4.22 13.74zm-15.76 -22.95c2.23,-0.04 3.95,-0.3 5.17,-0.79 1.22,-0.48 2.09,-1.3 2.62,-2.46 0.53,-1.16 0.79,-2.83 0.79,-5.01 0,-2.14 -0.26,-3.79 -0.79,-4.95 -0.53,-1.16 -1.4,-1.96 -2.62,-2.43 -1.22,-0.46 -2.94,-0.69 -5.17,-0.69l-9.39 0.06 0 16.27 9.39 0z" class="fil1 str0" id="_36"></path>
  <path d="M527.43 254.01c-0.17,0.46 -0.44,0.84 -0.82,1.14 -0.38,0.29 -0.82,0.44 -1.32,0.44l-5.61 0c-0.5,0 -0.96,-0.15 -1.36,-0.44 -0.4,-0.29 -0.66,-0.67 -0.79,-1.14l-13.18 -41.92 5.74 0 10.28 34.49c0.59,2.1 1.01,3.68 1.26,4.73l1.7 0c0.42,-1.72 0.86,-3.32 1.32,-4.79l10.21 -34.42 5.74 0 -13.18 41.92z" class="fil1 str0" id="_37"></path>
  <polygon points="552.71,255.58 547.17,255.58 547.17,212.08 552.71,212.08" class="fil1 str0" id="_38"></polygon>
  <path d="M579.13 211.33c2.65,0 4.81,0.09 6.49,0.28 1.68,0.19 3.47,0.51 5.36,0.98l-0.57 4.22c-2.1,-0.21 -3.92,-0.36 -5.45,-0.44 -1.53,-0.08 -3.48,-0.13 -5.83,-0.13 -2.9,0 -5.15,0.55 -6.75,1.64 -1.6,1.09 -2.74,2.9 -3.44,5.42 -0.69,2.52 -1.04,6.03 -1.04,10.53 0,4.5 0.35,8.01 1.04,10.53 0.69,2.52 1.84,4.33 3.44,5.42 1.6,1.09 3.85,1.64 6.75,1.64 4.88,0 8.93,-0.23 12.17,-0.69l0.57 4.16c-1.89,0.5 -3.79,0.87 -5.71,1.1 -1.91,0.23 -4.26,0.35 -7.03,0.35 -4.25,0 -7.6,-0.73 -10.06,-2.18 -2.46,-1.45 -4.24,-3.8 -5.36,-7.06 -1.11,-3.26 -1.67,-7.68 -1.67,-13.27 0,-5.59 0.56,-10.01 1.67,-13.27 1.11,-3.26 2.9,-5.61 5.36,-7.06 2.46,-1.45 5.81,-2.17 10.06,-2.17z" class="fil1 str0" id="_39"></path>
  <path d="M626.04 250.98l0.25 4.29c-3.87,0.25 -10.09,0.38 -18.66,0.38 -2.56,0 -4.59,-0.68 -6.08,-2.05 -1.49,-1.37 -2.26,-3.21 -2.3,-5.52l0 -28.5c0.04,-2.31 0.81,-4.15 2.3,-5.52 1.49,-1.37 3.52,-2.05 6.08,-2.05 8.57,0 14.79,0.13 18.66,0.38l-0.25 4.35 -17.46 0c-1.3,0 -2.26,0.34 -2.87,1.01 -0.61,0.67 -0.91,1.72 -0.91,3.15l0 9.46 18.79 0 0 4.48 -18.79 0 0 11.92c0,1.47 0.3,2.54 0.91,3.22 0.61,0.67 1.57,1.01 2.87,1.01l17.46 0z" class="fil1 str0" id="_40"></path>
  <path d="M647.03 211.33c5.13,0.08 9.43,0.5 12.92,1.26l-0.38 4.03c-4.08,-0.21 -8.18,-0.32 -12.29,-0.32 -2.44,0 -4.22,0.12 -5.36,0.35 -1.13,0.23 -1.99,0.81 -2.55,1.73 -0.57,0.92 -0.85,2.44 -0.85,4.54 0,2.31 0.41,3.95 1.23,4.92 0.82,0.97 2.24,1.7 4.26,2.21l8.83 2.21c3.24,0.8 5.51,2.16 6.81,4.1 1.3,1.93 1.95,4.64 1.95,8.13 0,3.28 -0.49,5.77 -1.48,7.47 -0.99,1.7 -2.51,2.86 -4.57,3.47 -2.06,0.61 -4.9,0.91 -8.51,0.91 -4.58,0 -9.08,-0.4 -13.49,-1.2l0.38 -4.1c2.35,0.08 3.87,0.13 4.54,0.13 3.07,0.13 5.4,0.19 7,0.19 2.98,0 5.17,-0.14 6.56,-0.41 1.39,-0.27 2.4,-0.9 3.03,-1.89 0.63,-0.99 0.95,-2.55 0.95,-4.7 0,-1.64 -0.19,-2.92 -0.57,-3.85 -0.38,-0.92 -0.95,-1.63 -1.7,-2.11 -0.76,-0.48 -1.83,-0.89 -3.22,-1.23l-9.01 -2.27c-3.07,-0.76 -5.26,-2.11 -6.59,-4.07 -1.32,-1.95 -1.99,-4.63 -1.99,-8.04 0,-3.32 0.48,-5.8 1.45,-7.44 0.97,-1.64 2.43,-2.72 4.38,-3.25 1.95,-0.53 4.72,-0.79 8.29,-0.79z" class="fil1 str0" id="_41"></path>
  <path d="M699.3 211.51c3.57,0 6.36,0.4 8.35,1.2 2,0.8 3.44,2.18 4.32,4.13 0.88,1.95 1.32,4.72 1.32,8.29 0,3.57 -0.43,6.33 -1.29,8.29 -0.86,1.96 -2.24,3.33 -4.13,4.13 -1.89,0.8 -4.54,1.2 -7.94,1.2 -3.07,0 -6.41,-0.17 -10.02,-0.5l0 17.34 -5.55 0 0 -43.5c2.27,-0.25 4.39,-0.41 6.37,-0.47 1.98,-0.06 4.83,-0.09 8.57,-0.09zm-0.06 22.44c2.19,-0.04 3.88,-0.32 5.08,-0.82 1.2,-0.5 2.06,-1.38 2.59,-2.62 0.53,-1.24 0.79,-3.04 0.79,-5.39 0,-2.35 -0.26,-4.16 -0.79,-5.42 -0.53,-1.26 -1.39,-2.14 -2.59,-2.65 -1.2,-0.5 -2.89,-0.76 -5.08,-0.76 -4.58,0 -7.69,0.02 -9.33,0.06l0 17.59 9.33 0z" class="fil1 str0" id="_42"></path>
  <path d="M740.21 254.01c-0.17,0.46 -0.44,0.84 -0.82,1.14 -0.38,0.29 -0.82,0.44 -1.32,0.44l-5.61 0c-0.5,0 -0.96,-0.15 -1.36,-0.44 -0.4,-0.29 -0.66,-0.67 -0.79,-1.14l-13.18 -41.92 5.74 0 10.28 34.49c0.59,2.1 1.01,3.68 1.26,4.73l1.7 0c0.42,-1.72 0.86,-3.32 1.32,-4.79l10.21 -34.42 5.74 0 -13.18 41.92z" class="fil1 str0" id="_43"></path>
  <polygon points="789.58,217 775.52,217 775.52,255.58 769.97,255.58 769.97,217 755.98,217 755.98,212.08 789.58,212.08" class="fil1 str0" id="_44"></polygon>
  <path d="M795.57 248.14c0.76,0 1.28,0.15 1.58,0.44 0.29,0.29 0.44,0.82 0.44,1.58l0 3.4c0,0.76 -0.15,1.28 -0.44,1.58 -0.29,0.29 -0.82,0.44 -1.58,0.44l-1.77 0c-0.71,0 -1.23,-0.15 -1.54,-0.44 -0.32,-0.29 -0.47,-0.82 -0.47,-1.58l0 -3.4c0,-0.76 0.16,-1.28 0.47,-1.58 0.32,-0.29 0.83,-0.44 1.54,-0.44l1.77 0z" class="fil1 str0" id="_45"></path>
  <path d="M826.84 246.76c0,1.43 0.34,2.48 1.01,3.15 0.67,0.67 1.74,1.01 3.22,1.01l15.7 0 0.25 4.29c-3.66,0.29 -9.27,0.44 -16.83,0.44 -3.07,0 -5.31,-0.74 -6.71,-2.21 -1.41,-1.47 -2.11,-3.47 -2.11,-5.99l0 -35.37 5.49 0 0 34.68z" class="fil1 str0" id="_46"></path>
  <polygon points="877.02,217 862.96,217 862.96,255.58 857.42,255.58 857.42,217 843.42,217 843.42,212.08 877.02,212.08" class="fil1 str0" id="_47"></polygon>
  <path d="M899.53 211.51c4.25,0 7.59,0.69 10.02,2.08 2.44,1.39 4.2,3.69 5.3,6.9 1.09,3.22 1.64,7.66 1.64,13.33 0,5.67 -0.55,10.12 -1.64,13.34 -1.09,3.22 -2.86,5.52 -5.3,6.9 -2.44,1.39 -5.78,2.08 -10.02,2.08 -4.88,0 -10.05,-0.19 -15.51,-0.57l0 -43.5c5.46,-0.38 10.63,-0.57 15.51,-0.57zm0 39.78c2.82,0 5.02,-0.55 6.62,-1.64 1.6,-1.09 2.75,-2.89 3.47,-5.39 0.71,-2.5 1.07,-5.98 1.07,-10.43 0,-4.46 -0.36,-7.94 -1.07,-10.46 -0.71,-2.52 -1.87,-4.33 -3.47,-5.42 -1.6,-1.09 -3.8,-1.64 -6.62,-1.64 -2.69,0 -6.01,0.04 -9.96,0.13l0 34.74c3.78,0.08 7.1,0.13 9.96,0.13z" class="fil1 str0" id="_48"></path>
  <path d="M928.34 248.14c0.76,0 1.28,0.15 1.58,0.44 0.29,0.29 0.44,0.82 0.44,1.58l0 3.4c0,0.76 -0.15,1.28 -0.44,1.58 -0.29,0.29 -0.82,0.44 -1.58,0.44l-1.77 0c-0.71,0 -1.23,-0.15 -1.54,-0.44 -0.32,-0.29 -0.47,-0.82 -0.47,-1.58l0 -3.4c0,-0.76 0.16,-1.28 0.47,-1.58 0.32,-0.29 0.83,-0.44 1.54,-0.44l1.77 0z" class="fil1 str0" id="_49"></path>
  <path d="M848.44 111.39l0 -62.36 0 -41.69c0.87,-4.56 3.57,-7.12 8.39,-7.34l74.75 0 0 7.34 -69.49 0c-3.83,-0.37 -5.58,1.71 -5.26,6.24l0 97.82 -0.63 0 0.63 0 0 55.59c0.15,1.51 1.12,2.49 3.05,2.43l71.7 0 0 7.35 -74.05 0c-4.82,-0.55 -8.16,-2.67 -9.09,-7.35l0 -58.02 0 0zm83.14 51.6l-59.3 0c-3.98,-0.63 -6.72,-2.74 -7.36,-7.34 0,-20.98 0.15,-41.69 0.15,-62.57l56.81 0 0 7.76 -49.33 0c0,17.38 -0.22,34.52 -0.22,52.06 -0.28,1.74 0.73,2.68 3.16,2.75l56.09 0 0 7.34zm-66.66 -141.89c0.4,-4.11 2.34,-7 7.46,-7.35l59.2 0 0 7.35 -56.41 0c-3.57,0 -2.79,-0.33 -2.79,3.47 0,17.52 0.17,34.62 0.17,52.16l49.33 0 0 7.48 -56.81 0c0,-21.06 -0.15,-41.95 -0.15,-63.11z" class="fil2"></path>
  <path d="M686.84 0.24l-7.76 0 0 176.81 7.76 0 0 -176.81zm16.35 0l-7.76 0 0 176.81 7.76 0 0 -176.81z" class="fil3"></path>
  <path d="M569.64 177.05l0 -176.81 6.93 0 0 176.81 -6.93 0zm15.8 -92.84l0 -83.97 8.31 0 0 76.49 37.14 0 0 -76.49 8.31 0 0 83.97 -53.76 0zm45.45 92.84l0 -76.21 -37.14 0 0 76.21 -8.31 0 0 -83.97 53.76 0 0 83.97 -8.31 0zm17.18 0l0 -176.81 6.93 0 0 176.81 -6.93 0z" class="fil2"></path>
  <path d="M213.71 177.05l-85.34 0 0 -27.98 60.4 -124.69 -60.4 0 0 -8.59 68.16 0 0 8.31 -60.68 124.13 0 21.89 77.86 0 0 6.93zm0 -24.11l0 8.59 -69.27 0 0 -11.36 60.68 -123.85 0 -19.12 -76.75 0 0 -6.93 85.34 0 0 27.43 -60.4 125.24 60.4 0z" class="fil2"></path>
  <path d="M235.35 177.05l0 -176.77 7.76 0 0 176.77 -7.76 0zm61.23 0l0 -57.91c0,-9.98 -8.31,-18.29 -18.56,-18.29l-18.56 0 0 76.2 -7.76 0 0 -85.34 24.66 0c15.24,0 27.71,12.19 27.71,27.43l0 57.91 -7.48 0zm-37.13 -176.77l0 76.47 37.13 -76.47 7.48 0 -39.34 82.58 -13.03 0.26 0 -82.84 7.76 0zm26.36 75.9c30.48,9.81 34.92,25.37 34.88,42.97l0 57.91 -8.04 0c0,-19.3 0,-38.6 0,-57.91 0.43,-15.74 -9.92,-34.3 -39.19,-36.51l39.19 -82.36 8.04 0 -34.88 75.9z" class="fil4"></path>
  <path d="M373.76 31.41l6.63 0 0 33.33 28.32 0 0 -33.33 6.62 0 0 33.33 0 6.63 -6.62 0 -28.32 0 -6.63 0 0 -6.63 0 -33.33zm-22.29 63.08l0 -6.63 0 -74.25 6.63 0 0 74.25 33.1 0 0 6.63 -33.1 0 -6.63 0zm29.69 82.56l0 -6.63 -34.81 0c0,-52.3 0.06,-104.57 0.06,-156.89 -0.31,-4.53 1.37,-6.61 5.04,-6.24l52.86 0.04 7.99 0 22.95 -0.2c3.63,0.02 5.58,1.71 5.26,6.24 0,52.43 0.67,104.7 0.67,157.04l-33.64 0 0 6.63 34.03 0 6.63 0 0 -6.63c0,-50.19 -0.31,-100.34 -0.36,-150.51l-0 0 0 -12.57c-0.87,-4.56 -3.57,-7.12 -8.39,-7.34l-27.12 0 -7.99 0 -56.93 0c-4.63,0.22 -7.22,2.78 -8.05,7.34l0 41.69c0,2.61 0,5.14 0,7.61l-0 0 0 113.78 0 6.63 6.63 0 35.2 0zm33 -148.38c0,-2.21 0,-4.42 0,-6.63l-39.62 0 0 6.63c13.21,0 26.42,0 39.62,0zm-52.28 -15.06l6.63 0 0 63.45 22.69 0 0 6.63 -22.69 0 -6.63 0 0 -6.63 0 -63.45zm46.82 86.71l-28.32 0 -6.63 0 0 6.63 0 61.05 6.63 0 0 -61.05 28.32 0 0 61.05 6.62 0 0 -61.05 0 -6.63 -6.62 0z" class="fil2"></path>
  <path d="M823.92 170.13l0 -169.88 6.93 0 0 169.88 0 6.93c-8.04,0 -16.07,0 -24.11,0l0 0 0 -0 -60.16 -126.22 0 126.22 -6.93 0 0 -140.76 0 -29.12 -10.25 0 0 169.88 -6.93 0 0 -169.88 0 -6.93c8.04,0 16.08,0 24.11,0l60.16 126.22 0 -126.22 6.93 0 0 140.76 0 14.79 0 14.33 10.25 0zm-17.18 -28.69l-60.16 -124.7 0 18.98 60.16 124.18 0 -18.45z" class="fil2"></path>
  <path d="M477.42 88.38c-4.73,-3.79 -10.72,-11.07 -10.72,-17.42 0,-21.21 0,-42.41 0,-63.62 0.87,-4.56 3.57,-7.12 8.39,-7.34 22.54,0 45.08,0 67.62,0 4.82,0.55 8.17,2.67 9.09,7.34l0 31.42 -8.39 0 0 -28.99c-0.15,-1.51 -1.12,-2.49 -3.05,-2.43 -20,0 -40,0 -60,0 -3.83,-0.37 -5.58,1.71 -5.26,6.24l0 52.11c0,35.77 58.05,13.16 60.23,44.62 0,13.53 0,31.82 0,45.35 -0.41,4.11 -2.34,7 -7.46,7.34 -12.44,0 -24.88,0 -37.32,0 -3.99,-0.63 -6.72,-2.74 -7.36,-7.34l0 -17.66 7.41 0c0,4.06 0,10.85 0,14.91 -0.28,1.74 0.73,2.68 3.16,2.75l31.31 0c3.57,0 2.79,0.33 2.79,-3.47 0,-9.82 0,-24.4 0,-34.23 -0.8,-6.41 1.02,-14.41 -5.47,-17.5 -10.97,-5.23 -33.09,-3.33 -44.97,-12.08zm74.38 12.79c0,21.2 0,47.04 0,68.25 -0.87,4.56 -3.57,7.12 -8.39,7.35 -22.54,0 -45.08,0 -67.62,0 -4.82,-0.55 -8.16,-2.67 -9.09,-7.35l0 -31.42 8.39 0 0 28.99c0.15,1.51 1.12,2.49 3.05,2.43 20,0 40,0 60,0 3.83,0.37 5.58,-1.71 5.26,-6.23l0 -56.74c0,-3.9 -0.15,-6.62 -2.53,-9.9 -11.6,-15.99 -60,-7.06 -57.7,-31 0,-13.53 0,-30.9 0,-44.43 0.4,-4.11 2.34,-7 7.46,-7.35 12.44,0 24.88,0 37.32,0 3.98,0.63 6.72,2.74 7.36,7.35l0 17.66 -7.41 0c0,-4.06 0,-10.85 0,-14.91 0.28,-1.74 -0.73,-2.68 -3.16,-2.75l-31.31 0c-3.57,0 -2.79,-0.33 -2.79,3.47 0,9.82 0,22.37 0,32.19 0.79,6.41 -1.02,14.41 5.47,17.5 13.56,6.46 54.97,7.25 55.69,26.9z" class="fil2"></path>
  <path d="M35.12 31.41l6.63 0 0 33.33 28.32 0 0 -33.33 6.63 0 0 33.33 0 6.63 -6.63 0 -28.32 0 -6.63 0 0 -6.63 0 -33.33zm-22.29 63.08l0 -6.63 0 -74.25 6.63 0 0 74.25 33.1 0 0 6.63 -33.1 0 -6.63 0zm29.69 82.56l0 -6.63 -34.81 0c0,-52.3 0.06,-104.57 0.06,-156.89 -0.31,-4.53 1.37,-6.61 5.04,-6.24l52.86 0.04 7.99 0 22.95 -0.2c3.63,0.02 5.58,1.71 5.26,6.24 0,52.43 0.67,104.7 0.67,157.04l-33.64 0 0 6.63 34.03 0 6.63 0 0 -6.63c0,-50.19 -0.31,-100.34 -0.36,-150.51l-0 0 0 -12.57c-0.87,-4.56 -3.57,-7.12 -8.39,-7.34l-27.12 0 -7.99 0 -56.93 0c-4.63,0.22 -7.22,2.78 -8.05,7.34l0 41.69c0,2.61 0,5.14 0,7.61l-0 0 0 113.78 0 6.63 6.63 0 35.2 0zm33 -148.38c0,-2.21 0,-4.42 0,-6.63l-39.62 0 0 6.63c13.21,0 26.42,0 39.62,0zm-52.28 -15.06l6.63 0 0 63.45 22.69 0 0 6.63 -22.69 0 -6.63 0 0 -6.63 0 -63.45zm46.82 86.71l-28.32 0 -6.63 0 0 6.63 0 61.05 6.63 0 0 -61.05 28.32 0 0 61.05 6.63 0 0 -61.05 0 -6.63 -6.63 0z" class="fil2"></path>
 </g>
</svg>
